<svg id="Outside_stroke" data-name="Outside stroke" xmlns="http://www.w3.org/2000/svg" width="6.64in" height="3.74in" viewBox="0 0 478.29 269.26">
  <defs>
    <style>
      .cls-1 {
        fill: #fff;
      }
    </style>
  </defs>
  <g>
    <path class="cls-1" d="M199.07,124.43c.46-4.39.77-7.51,1.47-12.88l-.28,0c-6.44,12.9-19.63,15.68-24,16.13-13,1.32-22.4-5-20.8-25,2.09-26,24-50.77,53.09-51.55,6.85-.18,16.41,0,26.47,3l-9.28,36.2c-2.09,9.62-4.13,22.25-4.56,31.49Zm8.67-55.19a14.31,14.31,0,0,0-7.45,0c-7.39,1.93-18.09,13.93-18.1,28.14,0,6.29,2.58,9.58,6.23,9.73,5.14.22,12.06-5.51,16-24Z" transform="translate(0)"/>
    <path class="cls-1" d="M231.43,121.13l10.46-47.52c2.16-9.24,4-16.08,5.25-22.32l19.09-.73-1.9,11.22.07-.42c6.37-9,14-13.07,22-13.22,10-.19,14.31,5.19,14.46,11.06,6.17-8.76,13-12.13,21.08-12.32,9.66-.18,12.66,6.83,12.09,17.83a85.07,85.07,0,0,1-1.65,11.22l-7.18,36.36-19.62,2.43,6.08-30.27a105.69,105.69,0,0,0,2.13-11.56c.26-4.6-.55-7.74-4.87-7.61-6.16.19-10.19,7.86-13.38,21.45l-5.63,28.6-20.5,2.72,7.91-37.46a26.31,26.31,0,0,0,1.12-7.4c-.15-2.81-.4-7.12-4.37-6.89-5,.29-10.76,8-14,21.65l-7,31Z" transform="translate(0)"/>
    <path class="cls-1" d="M385.25,103.77a58.08,58.08,0,0,1-23,7.22c-16.78,1.3-24.27-8.66-23.51-25.56.89-19.67,13.88-40.34,34.65-40.77,11.68-.24,19.8,6.63,19.48,18.12-.47,15.68-12.26,22.87-35.56,23.49a6.3,6.3,0,0,0,1.67,5c1.95,2,4.7,3.22,9.73,2.89,6.29-.4,11.27-2.61,16-5.32Zm-9.88-40.31a5.44,5.44,0,0,0-5.31-3.64c-7.89.26-11,11.09-11,11.09s18.06.24,16.27-7.32Z" transform="translate(0)"/>
    <path class="cls-1" d="M392.1,107.11,398.49,70c1.79-9.67,2.48-19.29,3.19-24.8l15.51-.75c-.37,4.24-.39,7.72-.9,12.13h0c4.07-8.47,10.38-14.07,16.21-14.26a29.92,29.92,0,0,1,3.2.19l-4.36,19.43a16.65,16.65,0,0,0-2.89.15c-9.27,1.37-12.29,10.33-14.6,22.82l-3.8,20.38Z" transform="translate(0)"/>
    <path class="cls-1" d="M433.37,85.72c3.3,1.53,6.93,3.56,12.58,3.14,4.85-.36,5.77-1.88,5.78-3.8,0-2.27-2-4-7-7-6.6-4-9.65-7.74-9.28-15.36.54-11.06,8.17-20.83,23-21.15,6.71-.14,10.53,1.38,12.78,2.44l-4.26,13.23a20.52,20.52,0,0,0-10.12-1.86c-1.52.18-5,.68-5,4,0,2.52,2.13,3.85,6.3,6.13,6.11,3.33,11.26,7.12,11.25,15.36,0,13.59-10.65,22.66-26.22,23.4a22.57,22.57,0,0,1-14-3.62Z" transform="translate(0)"/>
    <path class="cls-1" d="M217,242.84c4.59,1.44,12.42,1.55,18.8.26,10.92-2.2,15.66-6.78,19.19-16.95l2.07-8.28-.52.65c-5.05,6.6-13.56,10.28-20.19,11.13-14.9,1.91-21.64-9.26-20.32-25.19,2.18-26.76,21.26-48.18,46.88-53.29,9.88-2,22.13-.8,29.41,1.84l-13,60c-3.36,14-6.58,27.25-16,36.32-8.61,8.39-15.9,11.87-26,14.17s-20.79,2.34-27.15,1.28Zm49.91-72.32a12.18,12.18,0,0,0-6.89-.84c-7.67,1.52-16.88,12.95-18,27.82-.63,7.94,3.06,11.47,7.47,10.82,7-1,10.93-8.41,14.05-21.46Z" transform="translate(0)"/>
    <polygon class="cls-1" points="288.97 222.48 304.03 148.24 326.09 145.67 311.5 218.28 288.97 222.48"/>
    <polygon class="cls-1" points="171.49 241.9 191.46 161.19 216.7 158.09 197.9 236.66 171.49 241.9"/>
    <path class="cls-1" d="M362.62,122.33l-3.42,19.74,11.48-1.41-3.5,17.62L355,159.68,351.53,177c-.53,2.8-1.15,8.19-1.28,10.62-.23,4.32,2.45,5.6,4.55,5.25a30.54,30.54,0,0,0,5.14-1.16l-3.62,18.79a53.29,53.29,0,0,1-10.51,3.73c-11.41,2.84-17.75-1.95-17.62-10.85a89,89,0,0,1,1.63-14.59L335,162.84l-7.24.93L331.29,145l7.63-.91,2.66-13.3Z" transform="translate(0)"/>
    <path class="cls-1" d="M401.61,203.57c.2-6.77.47-8.87.7-11.55l-6.07,8.52c-7.35,8.29-16.85,7.84-20.26,6.33-3.06-1.36-8.2-4.41-9.14-14.12-1.9-19.51,7.56-48.21,32.91-56.3,9.33-3,21.12-2.1,27.59-.53l-5.77,37c-1.68,9.82-3,18.37-2.21,27.16Zm4.84-52.07a11.35,11.35,0,0,0-5.83,1.17c-7.27,3.69-12,10.77-13.13,28.56-.24,3.85,3.25,7.77,6.58,6.43,3.83-1.54,6.69-7.17,8-13.11Z" transform="translate(0)"/>
    <path class="cls-1" d="M426.38,199.51,441.91,111l17.19-1.75-15,86.7Z" transform="translate(0)"/>
    <path class="cls-1" d="M88.18,49.62c16.87-8.83,66.07-12.58,70.15-12.89,7-.54,311.08-29.44,317.92-29.56l2-7.17c-8,1.25-311.23,17.35-321.45,18-27.91,1.74-76.33-.08-102.16,19.71-20.25,15.51-34.23,39-36.48,60-1.81,17-1.35,39.44,24.06,50.38,4.9,2.11,15.77,4.12,15.77,4.12l6.8,1L38.71,240.25l-1,0L14.42,239,0,267.85s20.32,1.76,29.57,1.35c7,.3,22.26-.87,39.61-3.57,31.34-4.82,52.42-11.82,70.53-26.75,19-15.39,33.33-41.74,35.65-67.07,1.62-18.22-2.12-30.87-12.77-39.17-10.39-9-23.3-10.54-27.4-10L149,69.71,98.75,71.62,91.22,98.44l18.11-1.52-6.39,24.19c-5.43,1.61-15.53,2.38-20.38,2.13-16.91-.87-24.86-12.18-22.45-32.08C61.94,76,68.36,60,88.18,49.62ZM100.47,150a56.94,56.94,0,0,1,12.74-2c23-.78,28.18,13.43,25.75,34.75-1.25,11-7.47,24.52-18.25,36C113,227,103.16,231.8,90,234.5c-5.32,1.09-9.43,1.73-12.92,1.6Z" transform="translate(0)"/>
  </g>
</svg>
